<svg width="2000" height="2000" viewBox="0 0 2000 2000" fill="none" xmlns="http://www.w3.org/2000/svg">
<path fill-rule="evenodd" clip-rule="evenodd" d="M427.298 552.688C374 640.92 374 760.613 374 1000C374 1239.39 374 1359.08 427.298 1447.31C458.313 1498.65 501.346 1541.69 552.688 1572.7C640.92 1626 760.613 1626 1000 1626C1239.39 1626 1359.08 1626 1447.31 1572.7C1498.65 1541.69 1541.69 1498.65 1572.7 1447.31C1626 1359.08 1626 1239.39 1626 1000C1626 760.613 1626 640.92 1572.7 552.688C1541.69 501.346 1498.65 458.313 1447.31 427.298C1359.08 374 1239.39 374 1000 374C760.613 374 640.92 374 552.688 427.298C501.346 458.313 458.313 501.346 427.298 552.688ZM528.231 1055.33C524.665 1024.91 549.826 1000 580.45 1000C611.074 1000 635.466 1024.97 640.112 1055.24C651.794 1131.35 687.418 1202.33 742.542 1257.46C810.824 1325.74 903.434 1364.1 1000 1364.1C1096.57 1364.1 1189.18 1325.74 1257.46 1257.46C1312.58 1202.33 1348.21 1131.35 1359.89 1055.24C1364.53 1024.97 1388.93 1000 1419.55 1000C1450.17 1000 1475.33 1024.91 1471.77 1055.33C1459.39 1160.93 1411.82 1259.94 1335.88 1335.88C1246.8 1424.96 1125.98 1475 1000 1475C874.022 1475 753.204 1424.96 664.124 1335.88C588.185 1259.94 540.614 1160.93 528.231 1055.33Z" fill="url(#paint0_linear_471_3)"/>
<defs>
<linearGradient id="paint0_linear_471_3" x1="1000" y1="374" x2="1565" y2="1688" gradientUnits="userSpaceOnUse">
<stop stop-color="#1EAEFE"/>
<stop offset="0.935026" stop-color="#006CFF"/>
</linearGradient>
</defs>
</svg>
